<?xml version="1.0" encoding="utf-8"?>
<!-- Generator: Adobe Illustrator 15.0.0, SVG Export Plug-In . SVG Version: 6.00 Build 0)  -->
<!DOCTYPE svg PUBLIC "-//W3C//DTD SVG 1.1//EN" "http://www.w3.org/Graphics/SVG/1.1/DTD/svg11.dtd">
<svg version="1.1" id="圖層_1" xmlns="http://www.w3.org/2000/svg" xmlns:xlink="http://www.w3.org/1999/xlink" x="0px" y="0px"
	 width="339.828px" height="104.537px" viewBox="0 0 339.828 104.537" enable-background="new 0 0 339.828 104.537"
	 xml:space="preserve">
<g>
	<g>
		<g>
			<path fill="#FFFFFF" d="M304.572,65.842c0.109-0.109,0.172-0.262,0.172-0.416v-8.969c0-0.327-0.263-0.59-0.59-0.59l-41.815-0.05
				c-0.152,0-0.305,0.062-0.416,0.173c-0.11,0.108-0.172,0.262-0.172,0.417v9.067c0,0.154,0.062,0.307,0.172,0.418
				c0.111,0.109,0.264,0.174,0.416,0.174h14.098l0.003,37.943c0,0.156,0.06,0.307,0.174,0.418c0.108,0.109,0.262,0.172,0.42,0.172
				c2.531,0,9.689,0,10.665,0l0,0h0.015c0.539-0.008,1.147-0.188,1.652-0.623c0.474-0.402,0.867-1.092,0.859-2.066
				c0-2.156,0-35.598,0-35.598v-0.295l13.93-0.002C304.312,66.016,304.462,65.951,304.572,65.842z M230.146,95.049
				c0-0.156-0.066-0.311-0.176-0.418c-0.107-0.111-0.263-0.174-0.416-0.174h-26.445V83.783h22.8c0.157,0,0.307-0.061,0.418-0.174
				c0.109-0.107,0.171-0.258,0.171-0.416v-8.994c0-0.156-0.062-0.303-0.171-0.416c-0.111-0.109-0.261-0.172-0.418-0.172h-22.716
				v-7.455h26.361c0.156,0,0.306-0.061,0.416-0.172c0.109-0.113,0.176-0.262,0.176-0.418v-9.157c0-0.157-0.066-0.306-0.176-0.419
				c-0.11-0.111-0.26-0.173-0.416-0.173h-40.179c-0.156,0-0.309,0.062-0.416,0.173c-0.111,0.111-0.175,0.262-0.175,0.419v42.585
				c-0.002,1.795,0.903,3.221,2.124,4.201c1.228,0.984,2.758,1.508,4,1.516h32.585c0.681-0.012,1.311-0.355,1.834-0.838
				c0.263-0.238,0.447-0.496,0.577-0.723c0.068-0.113,0.118-0.221,0.157-0.314c0.036-0.111,0.072-0.141,0.084-0.359
				c0-0.01,0-0.02,0-0.027V95.049z M272.142,95.154c0-0.156-0.059-0.305-0.169-0.416c-0.112-0.111-0.262-0.172-0.417-0.172h-23.084
				l0.003-38.121c0-0.156-0.065-0.307-0.177-0.417c-0.113-0.11-0.261-0.175-0.416-0.175h-12.709c-0.325,0-0.594,0.266-0.594,0.59
				c0,0.999,0,2.787,0,5.088c0,3.717,0,8.773,0,13.979c0,10.252,0,21.066,0,23.313c0,2.146,0.926,3.611,2.106,4.539
				c1.193,0.938,2.654,1.346,3.757,1.35h29.391h0.014h0.021c0.635-0.02,1.148-0.4,1.59-0.949c0.433-0.57,0.661-1.162,0.687-1.668
				l-0.003-0.004l0.003-0.018C272.142,101.236,272.142,97.018,272.142,95.154z M174.431,77.164
				c-5.282-7.469-10.871-15.379-12.083-17.136l0,0l0,0c-0.002-0.003-0.006-0.003-0.006-0.006c-0.688-1.003-1.601-1.954-2.334-2.562
				c-1.925-1.619-4.426-2.6-7.144-2.6c-6.146,0-11.127,4.981-11.127,11.125v0.002h-0.003v16.949c0,8.828,0,18.35,0.003,21.15
				c0,0.156,0.063,0.309,0.174,0.42c0.107,0.107,0.262,0.172,0.415,0.172h12.966c0.154,0,0.307-0.064,0.417-0.172
				c0.11-0.111,0.173-0.264,0.173-0.42V74.52L169.8,94.537h-9.043c-0.156,0-0.309,0.064-0.419,0.174
				c-0.11,0.111-0.173,0.264-0.173,0.418v8.959c0,0.158,0.063,0.307,0.173,0.42c0.114,0.111,0.263,0.172,0.419,0.172h17.167
				c4.569,0,8.27-3.703,8.27-8.271c0-1.764-0.555-3.404-1.498-4.748C184.684,91.645,179.717,84.631,174.431,77.164z M328.878,54.896
				c-2.724,0-5.22,0.979-7.152,2.602c-0.729,0.601-1.646,1.559-2.336,2.563c-1.209,1.751-6.796,9.667-12.082,17.132
				c-5.28,7.469-10.254,14.484-10.263,14.498c-0.946,1.344-1.499,2.986-1.499,4.75c0,4.568,3.699,8.27,8.268,8.27h17.17
				c0.157,0,0.306-0.061,0.418-0.174c0.111-0.111,0.17-0.26,0.17-0.416V95.16c0-0.156-0.059-0.303-0.17-0.416
				c-0.112-0.111-0.261-0.174-0.418-0.174h-9.049l13.916-20.018l0.004,29.568c0,0.154,0.063,0.307,0.174,0.418
				c0.111,0.111,0.263,0.172,0.417,0.172h12.963c0.158,0,0.308-0.061,0.42-0.174c0.112-0.111,0.172-0.26,0.172-0.416V66.018
				C340,59.875,335.02,54.896,328.878,54.896z"/>
		</g>
	</g>
	<path fill="#FFFFFF" d="M63.702,0L0,104.711h127.087L63.702,0z M75.852,92.521c-2.96,0-5.708-0.873-8.026-2.359
		c-0.058,0.041-0.115,0.088-0.174,0.129c-7.203,5-15.055,8.207-22.332,8.232c-0.385,0-0.77-0.008-1.145-0.025
		c-5.402-0.24-9.523-2.43-12.136-5.344c-2.624-2.916-3.817-6.389-3.944-9.416c-0.013-0.236-0.019-0.486-0.019-0.748
		c0.096-8.947,6.21-18.621,14.578-26.493c8.403-7.786,19.229-13.756,29.864-13.871c0.038-0.002,0.091-0.004,0.16-0.004
		c4.938-0.012,9.152,1.625,12.039,4.543c2.895,2.909,4.351,6.951,4.342,11.278c0,3.004-0.678,6.168-2.028,9.348
		c2.308,2.625,3.718,6.057,3.718,9.822C90.749,85.844,84.081,92.521,75.852,92.521z M80.786,51.07
		c-1.74-1.738-4.332-2.895-8.107-2.907h-0.107c-8.49,0.001-18.486,5.219-26.143,12.386C38.705,67.66,33.521,76.754,33.618,82.99
		c0,0.152,0.003,0.316,0.012,0.512c0.06,1.738,0.842,4.096,2.516,5.932c1.689,1.836,4.199,3.314,8.296,3.531
		c0.29,0.012,0.583,0.02,0.878,0.02c5.367,0.023,12.092-2.486,18.396-6.734c-1.74-2.438-2.774-5.414-2.774-8.637
		c0-8.227,6.673-14.9,14.91-14.9c2.375,0,4.612,0.57,6.606,1.561c0.727-2.076,1.063-4.05,1.063-5.83
		C83.511,55.308,82.516,52.819,80.786,51.07z"/>
</g>
</svg>
