<svg xmlns="http://www.w3.org/2000/svg" viewBox="0 0 33.47 32.36"><defs><style>.cls-1{fill:#fff;}.cls-2{fill:#fbb03b;}.cls-3{fill:#f7931e;}.cls-4{fill:#a6d189;}.cls-5{fill:#94c277;}.cls-6{fill:#ed9383;}.cls-7{fill:#d97967;}</style></defs><g id="圖層_2" data-name="圖層 2"><g id="圖層_1-2" data-name="圖層 1"><g id="Group_1635" data-name="Group 1635"><path id="Path_217" data-name="Path 217" class="cls-1" d="M33.42,1h0A1.14,1.14,0,0,0,32,.2L24.89,2.26a1,1,0,0,0-.4.21.87.87,0,0,0-.42.74V6.6L.33,10.29l-.33,0v5.87A5,5,0,0,0,4.06,21h18a5.09,5.09,0,0,0,2-.86v4.72H5a3.78,3.78,0,1,0,4.64,3.68,3.73,3.73,0,0,0-.49-1.84H17a3.85,3.85,0,0,0-.48,1.84,3.81,3.81,0,0,0,7.62,0,3.73,3.73,0,0,0-.49-1.84h1.57a.88.88,0,0,0,.89-.87V4.2l6.51-1.88A1.11,1.11,0,0,0,33.43,1ZM5.79,30.48a1.93,1.93,0,0,1-.58-3.77H6.37a1.93,1.93,0,0,1-.58,3.77Zm14.57,0a1.93,1.93,0,0,1-.58-3.77H21a1.93,1.93,0,0,1-.58,3.77ZM1.88,13.42l1.34-.15,0,1.88-1.31.13Zm0,2.76v-.44l1.31-.13,0,1.81-1,.07a3.13,3.13,0,0,1-.29-1.31Zm18.88.55v1.15L18,18.09l0-1.18ZM18,16.45l0-2.27,2.72-.26v2.35Zm2.78-3-2.71.26.05-2.17,2.68-.31ZM17.72,9.37l0,1.77-2.5.29.08-1.7ZM15,16.65,15,14.47l2.55-.25-.06,2.26Zm2.57.29,0,1.19-2.61.2,0-1.22ZM15.06,14l.09-2.11,2.5-.29,0,2.16Zm-2.73,2.82,0-2.09,2.21-.22-.09,2.17Zm2.13.32-.05,1.23-2.11.16,0-1.25Zm-2.09-2.88,0-2,2.27-.27-.09,2.11Zm.05-2.52,0-1.61,2.32-.34-.07,1.69ZM12,10.2l0,1.6-2.51.29.07-1.54ZM9.22,17l.09-2,2.59-.25,0,2.08Zm2.63.29,0,1.25-2.69.2.06-1.28ZM9.33,14.55l.09-2L12,12.26l0,2ZM6.22,17.22l0-1.91,2.57-.25-.09,2Zm2.51.29L8.67,18.8,6.19,19l0-1.31ZM6.27,14.84l0-1.94L9,12.6l-.09,2Zm0-2.4,0-1.44L9,10.61,9,12.13Zm-.43-1.37,0,1.42-2.15.25,0-1.36Zm-2.2,4,0-1.89L5.84,13l0,1.94Zm2.11.26,0,1.89-2.1.14,0-1.83Zm0,2.36,0,1.31-1.51.12a2.56,2.56,0,0,1-.58-.22V17.84Zm3.38,1.51,2.7-.2v.23H9.13Zm3.17,0V19l2.1-.16,0,.43Zm2.58-.47,2.62-.2,0,.67H14.86ZM18,18.55l2.79-.22v.92H18Zm2.85-7.79-2.67.31.05-1.78,2.63-.38Zm3.27,2.37-2.82.27,0-2.23,2.8-.32Zm-2.85,3.56,2.85-.19v.71a2.71,2.71,0,0,1-.2.42l-2.65.2Zm0-.46,0-2.37,2.82-.27V16Zm2.84-5.85-2.79.33V8.84l2.78-.4ZM3.24,11.45v1.34L1.89,13V11.64Zm-.79,6.47.73-.05v.77a3.19,3.19,0,0,1-.72-.7Zm18.77,1.32v-.95l2.33-.17a3.2,3.2,0,0,1-2.33,1.14Z"/><g id="shoppingCar"><g id="Group_1632" data-name="Group 1632"><circle id="Ellipse_37" data-name="Ellipse 37" class="cls-2" cx="18.91" cy="3.15" r="2.18"/><path id="Path_214" data-name="Path 214" class="cls-3" d="M20.45,1.61,17.36,4.7a2.18,2.18,0,1,0,3.09-3.09Z"/></g><g id="Group_1633" data-name="Group 1633"><circle id="Ellipse_38" data-name="Ellipse 38" class="cls-4" cx="7.67" cy="8.49" r="3.64"/><path id="Path_215" data-name="Path 215" class="cls-5" d="M10.24,5.91,5.1,11.06a3.64,3.64,0,0,0,5.14-5.15Z"/></g><g id="Group_1634" data-name="Group 1634"><circle id="Ellipse_39" data-name="Ellipse 39" class="cls-6" cx="11.25" cy="1.45" r="1.45"/><path id="Path_216" data-name="Path 216" class="cls-7" d="M12.28.43,10.22,2.48a1.46,1.46,0,0,0,2.06,0A1.46,1.46,0,0,0,12.28.43Z"/></g></g></g></g></g></svg>