<svg xmlns="http://www.w3.org/2000/svg" viewBox="0 0 80 80"><defs><style>.cls-1{fill:#fbb03b;}.cls-2{fill:#f7931e;}.cls-3{fill:#fff;}</style></defs><g id="圖層_2" data-name="圖層 2"><g id="圖層_1-2" data-name="圖層 1"><circle class="cls-1" cx="40" cy="40" r="40"/><path class="cls-2" d="M68.28,11.72,11.72,68.28A40,40,0,0,0,68.28,11.72Z"/><path class="cls-3" d="M63.79,58.35V52H46.4A7.1,7.1,0,0,0,40,56a7.1,7.1,0,0,0-6.4-4H16.21v6.4H15v4.5H37.18a2.85,2.85,0,0,0,5.64,0H65v-4.5Zm-17.39-5h16v1.82h-16v1.38h16v1.82H40.73A5.73,5.73,0,0,1,46.4,53.33Zm-28.81,3.2h16V55.15h-16V53.33h16a5.73,5.73,0,0,1,5.67,5H17.59Zm46,4.94H41.48v1a1.48,1.48,0,0,1-3,0v-1H16.38V59.73H63.62Z"/><path class="cls-3" d="M40,14.73a14.36,14.36,0,0,0-2.88,28.42l2.88,6,2.88-6A14.36,14.36,0,0,0,40,14.73Zm2.29,27.13-.35.06-1.94,4-1.94-4-.35-.06a13,13,0,1,1,4.58,0Z"/><path class="cls-3" d="M40,21.49a7,7,0,0,0-3.53,13v4.38h7V34.5a7,7,0,0,0-3.51-13Zm2.13,16H37.84V35.1a6.74,6.74,0,0,0,2.16.35,6.84,6.84,0,0,0,2.13-.34Zm.54-4.09a5.41,5.41,0,0,1-2,.63v-4.2l1.49-1.18-.86-1.08L40,28.6l-1.31-1-.86,1.08,1.47,1.17V34a5.41,5.41,0,0,1-2-.63,5.6,5.6,0,1,1,5.34,0Z"/></g></g></svg>