<svg xmlns="http://www.w3.org/2000/svg" viewBox="0 0 80 80"><defs><style>.cls-1{fill:#1cb8ea;}.cls-2{fill:#00a1d2;}.cls-3{fill:none;stroke:#fff;stroke-miterlimit:10;stroke-width:0.82px;}.cls-4{fill:#fff;}</style></defs><g id="圖層_2" data-name="圖層 2"><g id="圖層_1-2" data-name="圖層 1"><circle class="cls-1" cx="40" cy="40" r="40"/><path class="cls-2" d="M68.28,11.72,11.72,68.28A40,40,0,0,0,68.28,11.72Z"/><path class="cls-3" d="M47.59,61.28H30.4a.43.43,0,0,1-.43-.42V12.74a.43.43,0,0,1,.43-.43H47.59a.43.43,0,0,1,.43.43V60.86A.42.42,0,0,1,47.59,61.28Zm-16.76-.85H47.16V13.16H30.83Z"/><path class="cls-3" d="M30.4,47.54H16.66a.43.43,0,0,1-.26-.78L30.15,36.45a.42.42,0,0,1,.68.35V47.11A.43.43,0,0,1,30.4,47.54Zm-12.46-.86H30v-9Z"/><path class="cls-3" d="M63.06,61.28H47.59a.42.42,0,0,1-.43-.42V36.8a.43.43,0,0,1,.43-.43H63.06a.43.43,0,0,1,.43.43V60.86A.43.43,0,0,1,63.06,61.28Zm-15-.85H62.63V37.22H48Z"/><path class="cls-4" d="M60.48,45H50.17a.43.43,0,0,1-.43-.43V39.37a.43.43,0,0,1,.43-.43H60.48a.43.43,0,0,1,.43.43v5.16A.43.43,0,0,1,60.48,45ZM50.6,44.1h9.45V39.8H50.6Z"/><path class="cls-3" d="M63.06,37.22H47.59a.42.42,0,0,1-.43-.42V20.47a.43.43,0,0,1,.43-.43H63.06a.43.43,0,0,1,.43.43V36.8A.43.43,0,0,1,63.06,37.22Zm-15-.85H62.63V20.9H48Z"/><path class="cls-4" d="M60.48,26.91H50.17a.43.43,0,0,1-.43-.43V23.05a.43.43,0,0,1,.43-.43H60.48a.43.43,0,0,1,.43.43v3.43A.43.43,0,0,1,60.48,26.91Zm-9.88-.86h9.45V23.48H50.6Z"/><path class="cls-4" d="M40.72,30.35H37.28a.43.43,0,0,1-.43-.43V16.17a.43.43,0,0,1,.43-.43h3.44a.43.43,0,0,1,.43.43V29.92A.43.43,0,0,1,40.72,30.35Zm-3-.86h2.58V16.6H37.71Z"/><path class="cls-4" d="M44.15,30.35H40.72a.43.43,0,0,1-.43-.43V16.17a.43.43,0,0,1,.43-.43h3.43a.43.43,0,0,1,.43.43V29.92A.43.43,0,0,1,44.15,30.35Zm-3-.86h2.57V16.6H41.15Z"/><path class="cls-4" d="M40.72,44.1H37.28a.43.43,0,0,1-.43-.43V29.92a.43.43,0,0,1,.43-.43h3.44a.43.43,0,0,1,.43.43V43.67A.43.43,0,0,1,40.72,44.1Zm-3-.86h2.58V30.35H37.71Z"/><path class="cls-4" d="M44.15,44.1H40.72a.43.43,0,0,1-.43-.43V29.92a.43.43,0,0,1,.43-.43h3.43a.43.43,0,0,1,.43.43V43.67A.43.43,0,0,1,44.15,44.1Zm-3-.86h2.57V30.35H41.15Z"/><path class="cls-4" d="M37.28,30.35H33.84a.43.43,0,0,1-.43-.43V16.17a.43.43,0,0,1,.43-.43h3.44a.43.43,0,0,1,.43.43V29.92A.43.43,0,0,1,37.28,30.35Zm-3-.86h2.58V16.6H34.27Z"/><path class="cls-4" d="M40.72,57.85H37.28a.43.43,0,0,1-.43-.43V43.67a.43.43,0,0,1,.43-.43h3.44a.43.43,0,0,1,.43.43V57.42A.43.43,0,0,1,40.72,57.85Zm-3-.86h2.58V44.1H37.71Z"/><path class="cls-4" d="M44.15,57.85H40.72a.43.43,0,0,1-.43-.43V43.67a.43.43,0,0,1,.43-.43h3.43a.43.43,0,0,1,.43.43V57.42A.43.43,0,0,1,44.15,57.85Zm-3-.86h2.57V44.1H41.15Z"/><path class="cls-4" d="M37.28,57.85H33.84a.43.43,0,0,1-.43-.43V43.67a.43.43,0,0,1,.43-.43h3.44a.43.43,0,0,1,.43.43V57.42A.43.43,0,0,1,37.28,57.85Zm-3-.86h2.58V44.1H34.27Z"/><path class="cls-4" d="M57,61.28H53.61a.42.42,0,0,1-.43-.42V47.11a.43.43,0,0,1,.43-.43H57a.43.43,0,0,1,.43.43V60.86A.42.42,0,0,1,57,61.28Zm-3-.85h2.58V47.54H54Z"/><path class="cls-4" d="M60.48,61.28H57a.42.42,0,0,1-.43-.42V47.11a.43.43,0,0,1,.43-.43h3.44a.43.43,0,0,1,.43.43V60.86A.42.42,0,0,1,60.48,61.28Zm-3-.85h2.58V47.54H57.47Z"/><path class="cls-4" d="M53.61,61.28H50.17a.42.42,0,0,1-.43-.42V47.11a.43.43,0,0,1,.43-.43h3.44a.42.42,0,0,1,.42.43V60.86A.42.42,0,0,1,53.61,61.28Zm-3-.85h2.58V47.54H50.6Z"/><path class="cls-3" d="M27,61.28H23.53a.42.42,0,0,1-.43-.42V54a.43.43,0,0,1,.43-.43H27a.43.43,0,0,1,.43.43v6.88A.43.43,0,0,1,27,61.28Zm-3-.85h2.58v-6H24Z"/><path class="cls-3" d="M30.4,61.28H27a.42.42,0,0,1-.43-.42V54a.43.43,0,0,1,.43-.43H30.4a.43.43,0,0,1,.43.43v6.88A.42.42,0,0,1,30.4,61.28Zm-3-.85H30v-6H27.4Z"/><path class="cls-3" d="M20.09,61.28H16.66a.42.42,0,0,1-.43-.42V54a.43.43,0,0,1,.43-.43h3.43a.43.43,0,0,1,.43.43v6.88A.42.42,0,0,1,20.09,61.28Zm-3-.85h2.57v-6H17.09Z"/><path class="cls-3" d="M23.53,61.28H20.09a.43.43,0,0,1-.43-.42V54a.43.43,0,0,1,.43-.43h3.44A.43.43,0,0,1,24,54v6.88A.42.42,0,0,1,23.53,61.28Zm-3-.85H23.1v-6H20.52Z"/><path class="cls-4" d="M60.48,37.22H57a.42.42,0,0,1-.43-.42V29.92a.43.43,0,0,1,.43-.43h3.44a.43.43,0,0,1,.43.43V36.8A.42.42,0,0,1,60.48,37.22Zm-3-.85h2.58v-6H57.47Z"/><path class="cls-4" d="M53.61,37.22H50.17a.42.42,0,0,1-.43-.42V29.92a.43.43,0,0,1,.43-.43h3.44a.42.42,0,0,1,.42.43V36.8A.42.42,0,0,1,53.61,37.22Zm-3-.85h2.58v-6H50.6Z"/><path class="cls-4" d="M57,37.22H53.61a.42.42,0,0,1-.43-.42V29.92a.43.43,0,0,1,.43-.43H57a.43.43,0,0,1,.43.43V36.8A.42.42,0,0,1,57,37.22Zm-3-.85h2.58v-6H54Z"/><path class="cls-3" d="M27,54.41H23.53A.43.43,0,0,1,23.1,54V47.11a.43.43,0,0,1,.43-.43H27a.43.43,0,0,1,.43.43V54A.43.43,0,0,1,27,54.41Zm-3-.86h2.58v-6H24Z"/><path class="cls-3" d="M30.4,54.41H27a.43.43,0,0,1-.43-.43V47.11a.43.43,0,0,1,.43-.43H30.4a.43.43,0,0,1,.43.43V54A.43.43,0,0,1,30.4,54.41Zm-3-.86H30v-6H27.4Z"/><path class="cls-3" d="M20.09,54.41H16.66a.43.43,0,0,1-.43-.43V47.11a.43.43,0,0,1,.43-.43h3.43a.43.43,0,0,1,.43.43V54A.43.43,0,0,1,20.09,54.41Zm-3-.86h2.57v-6H17.09Z"/><path class="cls-3" d="M23.53,54.41H20.09a.43.43,0,0,1-.43-.43V47.11a.43.43,0,0,1,.43-.43h3.44a.43.43,0,0,1,.43.43V54A.43.43,0,0,1,23.53,54.41Zm-3-.86H23.1v-6H20.52Z"/><path class="cls-4" d="M37.28,44.1H33.84a.43.43,0,0,1-.43-.43V29.92a.43.43,0,0,1,.43-.43h3.44a.43.43,0,0,1,.43.43V43.67A.43.43,0,0,1,37.28,44.1Zm-3-.86h2.58V30.35H34.27Z"/></g></g></svg>