<svg xmlns="http://www.w3.org/2000/svg" viewBox="0 0 50 50"><defs><style>.cls-1{fill:#569fd6;}.cls-2{fill:#0087dc;}.cls-3{fill:#fff;}</style></defs><g id="圖層_2" data-name="圖層 2"><g id="圖層_1-2" data-name="圖層 1"><rect class="cls-1" width="50" height="50" rx="5"/><path class="cls-2" d="M47.69.65l-47,47a5,5,0,0,0,3.7,1.66h40a5,5,0,0,0,5-5v-40A5,5,0,0,0,47.69.65Z"/><path class="cls-3" d="M25,10.58,7.5,39.42h35Zm3.35,25.48a4.06,4.06,0,0,1-2.21-.65l-.05,0A11.26,11.26,0,0,1,20,37.71h-.31a4.72,4.72,0,0,1-3.35-1.47,4.18,4.18,0,0,1-1.08-2.6,1.27,1.27,0,0,1,0-.2c0-2.47,1.71-5.13,4-7.3s5.29-3.79,8.22-3.82h.05a4.56,4.56,0,0,1,3.31,1.25A4.33,4.33,0,0,1,32,26.68a6.63,6.63,0,0,1-.56,2.57,4.1,4.1,0,0,1-3.08,6.81Zm1.36-11.41a3,3,0,0,0-2.23-.8h0c-2.34,0-5.09,1.43-7.2,3.41s-3.56,4.46-3.53,6.18v.14a2.69,2.69,0,0,0,.69,1.63,3.15,3.15,0,0,0,2.29,1H20a9.66,9.66,0,0,0,5.07-1.86A4.07,4.07,0,0,1,24.28,32a4.1,4.1,0,0,1,5.93-3.68,4.85,4.85,0,0,0,.29-1.6A2.81,2.81,0,0,0,29.75,24.65Z"/></g></g></svg>