<svg xmlns="http://www.w3.org/2000/svg" viewBox="0 0 80 80"><defs><style>.cls-1{fill:#ed9383;}.cls-2{fill:#d97967;}.cls-3{fill:none;stroke:#fff;stroke-miterlimit:10;stroke-width:2.69px;}</style></defs><g id="圖層_2" data-name="圖層 2"><g id="圖層_1-2" data-name="圖層 1"><circle class="cls-1" cx="40" cy="40" r="40"/><path class="cls-2" d="M68.28,11.72,11.72,68.28A40,40,0,0,0,68.28,11.72Z"/><polygon class="cls-3" points="36.34 15.51 23.31 15.51 16.8 26.8 23.31 38.08 36.34 38.08 42.86 26.8 36.34 15.51"/><line class="cls-3" x1="25.97" y1="19.01" x2="21.31" y2="27.16"/><polygon class="cls-3" points="43.6 49.2 56.64 49.2 63.15 37.92 56.64 26.63 43.6 26.63 37.09 37.92 43.6 49.2"/><line class="cls-3" x1="53.98" y1="45.71" x2="58.64" y2="37.55"/><polygon class="cls-3" points="23.8 60.85 36.83 60.85 43.35 49.57 36.83 38.28 23.8 38.28 17.28 49.57 23.8 60.85"/><line class="cls-3" x1="34.17" y1="57.36" x2="38.83" y2="49.2"/><line class="cls-3" x1="55.58" y1="27.38" x2="59.9" y2="23.06"/><line class="cls-3" x1="19.97" y1="64.23" x2="24.29" y2="59.91"/><line class="cls-3" x1="62.26" y1="37.75" x2="68.38" y2="37.75"/><line class="cls-3" x1="55.71" y1="48.25" x2="60.03" y2="52.57"/><line class="cls-3" x1="36.35" y1="60.17" x2="40.67" y2="64.49"/><line class="cls-3" x1="11.62" y1="49.67" x2="17.74" y2="49.67"/></g></g></svg>