<svg xmlns="http://www.w3.org/2000/svg" viewBox="0 0 20 14"><g id="圖層_2" data-name="圖層 2"><g id="圖層_1-2" data-name="圖層 1"><path id="Icon_awesome-users" data-name="Icon awesome-users" d="M3,6A2,2,0,1,0,1,4,2,2,0,0,0,3,6ZM17,6a2,2,0,1,0-2-2A2,2,0,0,0,17,6Zm1,1H16a2,2,0,0,0-1.41.58A4.56,4.56,0,0,1,16.94,11H19a1,1,0,0,0,1-1V9A2,2,0,0,0,18,7ZM10,7A3.5,3.5,0,1,0,6.5,3.5,3.5,3.5,0,0,0,10,7Zm2.4,1h-.26A4.81,4.81,0,0,1,7.86,8H7.6A3.6,3.6,0,0,0,4,11.6H4v.9A1.5,1.5,0,0,0,5.5,14h9A1.5,1.5,0,0,0,16,12.5v-.9A3.6,3.6,0,0,0,12.4,8Zm-7-.42A2,2,0,0,0,4,7H2A2,2,0,0,0,0,9v1a1,1,0,0,0,1,1H3.06A4.59,4.59,0,0,1,5.41,7.58Z"/></g></g></svg>