<svg xmlns="http://www.w3.org/2000/svg" viewBox="0 0 24.63 24.63"><defs><style>.cls-1{fill:#fff;stroke:#fff;stroke-miterlimit:10;stroke-width:0.25px;}</style></defs><g id="圖層_2" data-name="圖層 2"><g id="圖層_1-2" data-name="圖層 1"><path id="Icon_awesome-wpforms" data-name="Icon awesome-wpforms" class="cls-1" d="M24.5,2.48V22.16a2.32,2.32,0,0,1-2.29,2.35H2.48A2.33,2.33,0,0,1,.13,22.19s0,0,0,0V2.48A2.31,2.31,0,0,1,2.42.13a.06.06,0,0,1,.06,0H22.16a2.31,2.31,0,0,1,2.34,2.3Zm-2,19.67V2.48a.31.31,0,0,0-.31-.32h-.51l-6,4.06L12.31,3.5,9,6.22,3,2.15h-.5a.33.33,0,0,0-.32.32V22.15a.33.33,0,0,0,.32.32H22.16a.31.31,0,0,0,.31-.32ZM8.3,8.51v2h-4v-2Zm0,4v2h-4v-2Zm.61-8,2.93-2.38H5.39L8.9,4.54Zm11.42,4v2H9.67v-2Zm0,4.05v2H9.67v-2Zm-4.6-8,3.5-2.38H12.79Zm4.6,12.07v2H14.92v-2Z"/></g></g></svg>