<svg xmlns="http://www.w3.org/2000/svg" viewBox="0 0 80 80"><defs><style>.cls-1{fill:#7dc6b1;}.cls-2{fill:#65b39d;}.cls-3{fill:none;stroke-width:1.63px;}.cls-3,.cls-4{stroke:#fff;stroke-miterlimit:10;}.cls-4{fill:#fff;stroke-width:2.45px;}</style></defs><g id="圖層_2" data-name="圖層 2"><g id="圖層_1-2" data-name="圖層 1"><circle class="cls-1" cx="40" cy="40" r="40"/><path class="cls-2" d="M68.28,11.72,11.72,68.28A40,40,0,0,0,68.28,11.72Z"/><path class="cls-3" d="M40,12.58A28.55,28.55,0,0,0,28.83,67.42l.11-.07c.14-.18.25-.34.37-.48l.14-.21a1.67,1.67,0,0,1,.12-.23,1.47,1.47,0,0,1,.1-.22,1.58,1.58,0,0,1,.16-.35A26.77,26.77,0,1,1,54.6,63.49a2.94,2.94,0,0,1,.38.8,2.91,2.91,0,0,1,.61.75A28.54,28.54,0,0,0,40,12.58Z"/><path class="cls-3" d="M40,28.86a12.17,12.17,0,0,0-8.91,20.58l1.25-1.22A10.44,10.44,0,1,1,43.53,51a.15.15,0,0,0,0,.07,3.22,3.22,0,0,1,.24.61,3.38,3.38,0,0,1,.22.52,3,3,0,0,1,.18.36l.08.13A12.27,12.27,0,0,0,40,28.86Z"/><path class="cls-3" d="M40.72,19h-1A22.31,22.31,0,0,0,17.29,40.82l0,.94h1.94c0-.17,0-.34,0-.51a2.13,2.13,0,0,1,0-.44,4,4,0,0,1,0-.49,2.68,2.68,0,0,1,0-.4h0a20.46,20.46,0,0,1,19.73-19h0l.37,0h.44l.38,0h.66V20Z"/><line class="cls-4" x1="35.59" y1="51.9" x2="29.45" y2="66.03"/><line class="cls-4" x1="43.61" y1="50.68" x2="50.86" y2="66.96"/></g></g></svg>