<svg xmlns="http://www.w3.org/2000/svg" viewBox="0 0 80 80"><defs><style>.cls-1{fill:#ee7d44;}.cls-2{fill:#d76534;}.cls-3{fill:#fff;stroke:#fff;stroke-miterlimit:10;stroke-width:1.4px;}</style></defs><g id="圖層_2" data-name="圖層 2"><g id="圖層_1-2" data-name="圖層 1"><circle class="cls-1" cx="40" cy="40" r="40"/><path class="cls-2" d="M68.28,11.72,11.72,68.28A40,40,0,0,0,68.28,11.72Z"/><path class="cls-3" d="M62.45,36.93l-20.05-20A4,4,0,0,0,37,16.61l.07.18c.11.2.21.41.3.62s.17.22.09.13l.2.26,0,0a2,2,0,0,0,.17.19l.2.21.12.11a1.9,1.9,0,0,1,1.35-.55,1.93,1.93,0,0,1,1.36.56l20,20a1.94,1.94,0,0,1,0,2.73l-20,20a1.94,1.94,0,0,1-2.73,0l-20.05-20a1.94,1.94,0,0,1,0-2.73L35.4,21.16h0a.51.51,0,0,1-.07-.17l0-.12c0-.05-.05-.11-.07-.17a.13.13,0,0,1,0-.06c-.08-.18-.14-.37-.21-.55a2.67,2.67,0,0,1-.09-.26,1,1,0,0,1-.15-.34.11.11,0,0,0,0-.05,1.5,1.5,0,0,1-.07-.2s0,0,0,0v0h0A.47.47,0,0,1,34.6,19L16.68,36.93a4,4,0,0,0,0,5.67l20,20a4,4,0,0,0,5.67,0l20.05-20A4,4,0,0,0,62.45,36.93Z"/><rect class="cls-3" x="27.8" y="20.16" width="12.64" height="2.56" rx="1.28" transform="translate(42.74 -17.92) rotate(70.22)"/><rect class="cls-3" x="21.26" y="25.8" width="12.64" height="2.56" rx="1.28" transform="translate(43.73 -8.04) rotate(70.22)"/><rect class="cls-3" x="15.02" y="32.33" width="12.64" height="2.56" rx="1.28" transform="translate(45.75 2.16) rotate(70.22)"/><rect class="cls-3" x="52.45" y="45.1" width="12.64" height="2.56" rx="1.28" transform="translate(82.53 -24.61) rotate(70.22)"/><rect class="cls-3" x="45.91" y="50.75" width="12.64" height="2.56" rx="1.28" transform="translate(83.52 -14.73) rotate(70.22)"/><rect class="cls-3" x="39.68" y="57.28" width="12.64" height="2.56" rx="1.28" transform="translate(85.54 -4.54) rotate(70.22)"/><rect class="cls-3" x="39.97" y="20.16" width="12.64" height="2.56" rx="1.28" transform="matrix(0.94, -0.34, 0.34, 0.94, -4.52, 16.93)"/><rect class="cls-3" x="45.62" y="26.69" width="12.64" height="2.56" rx="1.28" transform="matrix(0.94, -0.34, 0.34, 0.94, -6.4, 19.22)"/><rect class="cls-3" x="52.15" y="32.93" width="12.64" height="2.56" rx="1.28" transform="translate(-8.13 21.8) rotate(-19.78)"/><rect class="cls-3" x="15.32" y="44.51" width="12.64" height="2.56" rx="1.28" transform="translate(-14.22 10.02) rotate(-19.78)"/><rect class="cls-3" x="20.96" y="51.04" width="12.64" height="2.56" rx="1.28" transform="translate(-16.1 12.32) rotate(-19.78)"/><rect class="cls-3" x="27.5" y="57.28" width="12.64" height="2.56" rx="1.28" transform="translate(-17.82 14.9) rotate(-19.78)"/></g></g></svg>