<svg xmlns="http://www.w3.org/2000/svg" viewBox="0 0 20 16"><defs><style>.cls-1{fill:#67c3d0;}</style></defs><g id="圖層_2" data-name="圖層 2"><g id="圖層_1-2" data-name="圖層 1"><path id="Icon_awesome-tags" data-name="Icon awesome-tags" class="cls-1" d="M15.56,7.06,8.94.44A1.5,1.5,0,0,0,7.88,0H1.5A1.5,1.5,0,0,0,0,1.5V7.88A1.5,1.5,0,0,0,.44,8.94l6.62,6.62a1.49,1.49,0,0,0,2.12,0l6.38-6.38a1.49,1.49,0,0,0,0-2.12ZM3.5,5A1.5,1.5,0,1,1,5,3.5,1.5,1.5,0,0,1,3.5,5ZM19.56,9.18l-6.38,6.38a1.49,1.49,0,0,1-2.12,0h0l5.44-5.44a2.81,2.81,0,0,0,0-4L10.36,0h1.52a1.5,1.5,0,0,1,1.06.44l6.62,6.62a1.49,1.49,0,0,1,0,2.12Z"/></g></g></svg>