<svg xmlns="http://www.w3.org/2000/svg" viewBox="0 0 25.66 25.66"><defs><style>.cls-1{fill:#fff;}</style></defs><g id="圖層_2" data-name="圖層 2"><g id="圖層_1-2" data-name="圖層 1"><path id="Icon_awesome-user-circle" data-name="Icon awesome-user-circle" class="cls-1" d="M12.83,0A12.83,12.83,0,1,0,25.66,12.83h0A12.83,12.83,0,0,0,12.83,0Zm0,5A4.56,4.56,0,1,1,8.28,9.52h0A4.55,4.55,0,0,1,12.82,5h0Zm0,17.8a9.9,9.9,0,0,1-7.58-3.53,5.78,5.78,0,0,1,5.09-3.09,1.15,1.15,0,0,1,.37.06,6.57,6.57,0,0,0,4.23,0,1.57,1.57,0,0,1,.37-.05,5.76,5.76,0,0,1,5.09,3.09,9.88,9.88,0,0,1-7.57,3.53Z"/></g></g></svg>