<svg xmlns="http://www.w3.org/2000/svg" viewBox="0 0 80 80"><defs><style>.cls-1{fill:#569fd6;}.cls-2{fill:#5297cb;}.cls-3{fill:#fff;}</style></defs><g id="圖層_2" data-name="圖層 2"><g id="圖層_1-2" data-name="圖層 1"><circle class="cls-1" cx="40" cy="40" r="40"/><path class="cls-2" d="M68.28,11.72,11.72,68.28A40,40,0,0,0,68.28,11.72Z"/><rect class="cls-3" x="33.37" y="18.18" width="13.26" height="5.56" rx="1.59"/><rect class="cls-3" x="36.72" y="55.27" width="6.55" height="6.55" rx="1.59"/><path class="cls-3" d="M53.79,55.9a2.65,2.65,0,1,0,2.64,2.64A2.64,2.64,0,0,0,53.79,55.9Z"/><circle class="cls-3" cx="26.21" cy="58.54" r="2.65"/><rect class="cls-3" x="26.21" y="57.75" width="27.57" height="1.59"/><path class="cls-3" d="M39.21,52.75V37a2.64,2.64,0,1,1,1.58,0v15.8h1l8.75-17a2.62,2.62,0,0,0,0-2.49L47.4,27.74a2.65,2.65,0,0,0-2.31-1.36H34.91a2.65,2.65,0,0,0-2.31,1.36l-3.05,5.47a2.62,2.62,0,0,0,0,2.49l8.75,17Z"/></g></g></svg>