<svg xmlns="http://www.w3.org/2000/svg" viewBox="0 0 80 80"><defs><style>.cls-1{fill:#a6d189;}.cls-2{fill:#94c277;}.cls-3{fill:#fff;}</style></defs><g id="圖層_2" data-name="圖層 2"><g id="圖層_1-2" data-name="圖層 1"><circle class="cls-1" cx="40" cy="40" r="40"/><path class="cls-2" d="M68.28,11.72,11.72,68.28A40,40,0,0,0,68.28,11.72Z"/><path class="cls-3" d="M32.74,37a1.65,1.65,0,0,0-1.23-.27L29,37l.32,2.72,2.5-.29A1.57,1.57,0,0,0,33,38.84a1.35,1.35,0,0,0,.25-1A1.29,1.29,0,0,0,32.74,37Z"/><polygon class="cls-3" points="44.15 38.55 44.24 39.29 44.09 39.31 47.2 41.78 46.48 35.63 44.15 38.55"/><path class="cls-3" d="M47.39,43.39l-.19-1.61-3.1-2.47-4.38.51L40,42.51l5.13-.61.2,1.73-7.07.83L37.1,34.31l7.08-.83.2,1.71-5.13.6.27,2.31L44,37.56l.12,1,2.33-2.93-.28-2.39L48.61,33l7.93-10L12.65,28,16,57.12l44.16-5L49,43.2ZM21,46.49l-1.94.23-1.2-10.15,7.18-.84.2,1.71L20,38.05l.29,2.47L24.94,40l.2,1.74-4.62.54Zm13.39-1.57-1.62-2.84a1.73,1.73,0,0,0-1.89-.88l-1.36.16L30,45.44l-1.94.22L26.89,35.51,31.58,35a3.61,3.61,0,0,1,2.33.41,2.77,2.77,0,0,1,1.28,2.16,2.63,2.63,0,0,1-1.57,2.91,2.57,2.57,0,0,1,1.15,1.12l1.76,3.11Z"/><path class="cls-3" d="M58,23.16l1.27,11.17a4,4,0,1,1,1.36,6.34,5,5,0,0,1-.68-.38l1.31,11.47L73.88,35.85Z"/><path class="cls-3" d="M58.51,35.42a4,4,0,0,1,.71-1.09L58,23.16l-.35-.28L56.54,23,48.61,33l4.66-.54.2,1.71-5.13.6L48.61,37l4.52-.53.2,1.72-4.52.53.32,2.69,5.13-.61.2,1.73L49,43.2l11.14,8.89L61,52l.19-.23L59.9,40.29A4,4,0,0,1,58.51,35.42Z"/></g></g></svg>