<svg xmlns="http://www.w3.org/2000/svg" viewBox="0 0 26.55 26.55"><defs><style>.cls-1{fill:#e2e6ea;}</style></defs><g id="圖層_2" data-name="圖層 2"><g id="圖層_1-2" data-name="圖層 1"><path id="Icon_material-language" data-name="Icon material-language" class="cls-1" d="M13.26,0A13.28,13.28,0,1,0,26.55,13.27,13.28,13.28,0,0,0,13.26,0Zm9.2,8H18.54a20.49,20.49,0,0,0-1.82-4.72A10.66,10.66,0,0,1,22.46,8ZM13.27,2.71A18.75,18.75,0,0,1,15.81,8H10.74A18.72,18.72,0,0,1,13.27,2.71ZM3,15.93a10.39,10.39,0,0,1,0-5.31H7.48a23.59,23.59,0,0,0-.18,2.65,21.49,21.49,0,0,0,.19,2.66Zm1.09,2.65H8a21.06,21.06,0,0,0,1.83,4.73A10.59,10.59,0,0,1,4.09,18.58ZM8,8H4.09A10.61,10.61,0,0,1,9.84,3.24,20.55,20.55,0,0,0,8,8Zm5.27,15.88a18.65,18.65,0,0,1-2.53-5.26h5.07A18.68,18.68,0,0,1,13.27,23.84Zm3.11-7.91H10.17A19.74,19.74,0,0,1,10,13.27a19.6,19.6,0,0,1,.22-2.65h6.21a19.58,19.58,0,0,1,.21,2.65A19.73,19.73,0,0,1,16.38,15.93Zm.33,7.38a21.06,21.06,0,0,0,1.83-4.73h3.91a10.66,10.66,0,0,1-5.75,4.73Zm2.35-7.38a21.49,21.49,0,0,0,.19-2.66,21.33,21.33,0,0,0-.19-2.65h4.48a10.39,10.39,0,0,1,0,5.31Z"/></g></g></svg>