<svg xmlns="http://www.w3.org/2000/svg" viewBox="0 0 16 23">
  <defs>
    <style>.cls-1{fill:#0087DC;}</style>
  </defs>
  <g id="圖層_2" data-name="圖層 2">
    <g id="圖層_1-2" data-name="圖層 1">
      <path id="Path_11" data-name="Path 11" class="cls-1" d="M15.45,5.18,9.23.39a2.12,2.12,0,0,0-2.45,0L.56,5.18a1.23,1.23,0,0,0-.35,1.7,1.14,1.14,0,0,0,.35.34L6.72,12a2.24,2.24,0,0,0,2.57,0l6.16-4.75a1.23,1.23,0,0,0,.35-1.7A1.26,1.26,0,0,0,15.45,5.18Z" />
      <g id="Group_1329" data-name="Group 1329">
        <path id="Path_12" data-name="Path 12" class="cls-1" d="M6.72,17.88l-4.16-3.2a.44.44,0,0,0-.55,0L.56,15.8a1.23,1.23,0,0,0-.35,1.7,1.17,1.17,0,0,0,.35.35l6.16,4.74a2.24,2.24,0,0,0,2.57,0l6.16-4.74a1.23,1.23,0,0,0,.35-1.7,1.17,1.17,0,0,0-.35-.35L14,14.68a.45.45,0,0,0-.56,0l-4.15,3.2A2.24,2.24,0,0,1,6.72,17.88Z" />
        <path id="Path_13" data-name="Path 13" class="cls-1" d="M15.45,10.49l-1.32-1a.41.41,0,0,0-.55,0l-4.5,3.43a2.24,2.24,0,0,1-2.16,0L2.42,9.48a.41.41,0,0,0-.55,0l-1.32,1a1.23,1.23,0,0,0-.35,1.7,1.14,1.14,0,0,0,.35.34l6.17,4.75a2.23,2.23,0,0,0,2.56,0l6.17-4.75a1.22,1.22,0,0,0,.35-1.69A1.17,1.17,0,0,0,15.45,10.49Z" />
      </g>
    </g>
  </g>
</svg>