<?xml version="1.0" encoding="utf-8"?>
<!-- Generator: Adobe Illustrator 15.0.0, SVG Export Plug-In . SVG Version: 6.00 Build 0)  -->
<!DOCTYPE svg PUBLIC "-//W3C//DTD SVG 1.1//EN" "http://www.w3.org/Graphics/SVG/1.1/DTD/svg11.dtd">
<svg id="cis-search" viewBox="0 0 512 512">
  <path fill="var(--ci-primary-color, currentColor)" d="M479.6,400.4l-81.084-81.084-53.32-22.028A178.976,178.976,0,0,0,376,196.687c0-99.252-80.748-180-180-180s-180,80.748-180,180,80.748,180,180,180a178.972,178.972,0,0,0,101.357-31.33l21.961,53.157L400.4,479.6a56,56,0,0,0,79.2-79.2ZM64,196.687c0-72.786,59.215-132,132-132s132,59.214,132,132-59.215,132-132,132S64,269.472,64,196.687Z" class="ci-primary"></path>
</svg>